<svg xmlns="http://www.w3.org/2000/svg" width="250.433" height="73.329" viewBox="0 0 250.433 73.329">
    <defs>
        <style>
            .prefix__cls-1{fill:#fff}
        </style>
    </defs>
    <g id="prefix__Mahan_Air_Logo_New" transform="translate(432.65 -303.34)">
        <path id="prefix__Path_1" d="M-314 303.34c-4.1 12.592-11.428 20.139-23.858 22.695-9.241 1.9-18.387 4.367-27.407 7.135A34.449 34.449 0 00-382 344.849c-5.722 7.084-11.612 14.035-17.319 21.134-5.78 7.2-13.247 9.6-22.105 7.909-7.651-1.465-11.87-7.791-11.141-16.568.95-11.546 6.539-20.235 16.369-26.318a5.764 5.764 0 002.091-2.887 52.253 52.253 0 001.613-6.406 4.392 4.392 0 014.7-3.785c2.2-.029 4.418.1 6.62.228 3.152.191 4.691 2.106 4.529 5.294-.339 6.863-3.328 11.266-10.184 13.7a73.9 73.9 0 00-15.707 8.372 14.92 14.92 0 00-6.716 12.128c-.4 8.557 5.67 14.116 14.19 12.953 7.3-.994 12.746-4.926 16.936-10.788q10.272-14.37 20.5-28.762c1.76-2.467 3.483-4.985 5.383-7.341a43.28 43.28 0 0125.375-15.6c10.591-2.18 21.415-3.159 32.866-4.772z" class="prefix__cls-1" data-name="Path 1"/>
        <path id="prefix__Path_2" d="M-326.729 337.8c-1.451 9.109-7.71 15.022-17.709 17.106-6.281 1.3-12.636 2.327-18.858 3.888a24.041 24.041 0 00-12.511 8.174c-3.1 3.645-6.141 7.356-9.477 10.78a30.789 30.789 0 01-6.716 4.786c6.723-8.159 13.343-16.406 20.191-24.462 8.718-10.25 19.97-15.957 33.224-17.945 3.885-.582 7.703-1.502 11.856-2.327z" class="prefix__cls-1" data-name="Path 2" transform="translate(-10.717 -9.085)"/>
        <path id="prefix__Path_3" d="M-309.089 395.5c1.819-4.514 3.623-8.991 5.434-13.468l-.39-.3-4.632 5.427c-2.018 2.386-3.984 4.823-6.046 7.165a4.663 4.663 0 01-2.143 1.524c-3.24.751-4.065.066-4.131-3.336a70.937 70.937 0 00-.619-10.633 9.016 9.016 0 00-.891 1.362c-1.222 2.872-2.408 5.758-3.6 8.638-1.9 4.6-1.988 4.646-7.474 3.674 1.539-3.763 3.041-7.467 4.558-11.156 3.056-7.43 3.056-7.364 11.119-7.246 2 .029 2.548.781 2.5 2.592-.074 2.8-.022 5.6-.022 8.394.265.059.523.125.788.184 2.489-3.012 5.044-5.972 7.437-9.057a4.7 4.7 0 014.426-2.1c2.18.162 4.381.037 7.069.037-1.156 2.872-2.15 5.375-3.166 7.872-.935 2.3-1.892 4.58-2.835 6.87-1.837 4.485-2.22 4.684-7.382 3.557z" class="prefix__cls-1" data-name="Path 3" transform="translate(-26.119 -19.452)"/>
        <path id="prefix__Path_4" d="M-345.149 379.978c-8.446-1.156-8.409-1.134-12.739 5.869-2.349 3.8-4.985 7.408-9.808 8.225a7.082 7.082 0 01-6.966-2.393c-1.8-2.143-1.679-4.595-.692-7.018 3.534-8.66 18.137-13.439 26.016-8.446a33.465 33.465 0 014.189 3.763z" class="prefix__cls-1" data-name="Path 4" transform="translate(-14.918 -18.679)"/>
        <path id="prefix__Path_5" d="M-200.48 316.453c-.265 4.669-.552 9.337-.781 14.013-.155 3.174 1.377 5.618 4.359 6.2A61.147 61.147 0 00-183.883 338c9.668-.214 18.534-3.454 26.715-8.483a23.028 23.028 0 005.007-4.536c1.613-1.826 2.953-3.807 5.876-3.211.5.1 1.127-.368 1.973-.685-1.06 1.8-1.429 3.542-4.138 3.372-3.211-.206-4.131 2.7-1.959 6.259-.729.773-1.51 1.613-2.467 2.629-2.349-2.563-4.293-1.289-6.524.2-10.545 7.017-22.12 10.626-34.874 9.668-6.576-.493-9.477-4.212-8.792-10.736.442-4.2.817-8.409 1.333-12.6a21.264 21.264 0 011.06-3.527c.067.037.126.074.193.103z" class="prefix__cls-1" data-name="Path 5" transform="translate(-60.502 -3.43)"/>
        <path id="prefix__Path_6" d="M-139.549 395.629h-6.767c-.133-.987-.25-1.878-.42-3.181-3.159 0-6.333-.022-9.5.029a1.577 1.577 0 00-1.127.677c-1.819 3.188-4.735 2.879-8.048 2.474a18.843 18.843 0 011.267-1.723q7.069-7.522 14.175-15.007c1.421-1.5 6.031-2.489 7.872-1.583.449.221.685.943.95 1.465a2.667 2.667 0 01.074.817c.5 5.274 1.009 10.539 1.524 16.032zm-7.01-7.231c-.177-2.283-.331-4.263-.53-6.892-2.224 2.54-3.976 4.536-6.038 6.892z" class="prefix__cls-1" data-name="Path 6" transform="translate(-70.455 -19.411)"/>
        <path id="prefix__Path_7" d="M-260.58 395.519c2.371-5.81 4.484-11.48 7-16.973 1.289-2.82 3.984-.884 6.451-1.4-1.038 2.651-1.892 4.838-2.864 7.319 1.819-.633 3.38-1.554 4.97-1.62 1.7-.074 3.873.184 5.007 1.215.751.677.162 3-.081 4.543a14.553 14.553 0 01-1.193 3.071c-1.937 4.72-1.944 4.713-7.562 3.844.935-2.327 1.937-4.573 2.725-6.9.25-.744.258-2.04-.191-2.43a2.79 2.79 0 00-2.518-.206 7.31 7.31 0 00-2.614 2.3 15.475 15.475 0 00-1.473 3.247c-1.95 4.778-1.943 4.778-7.657 3.99z" class="prefix__cls-1" data-name="Path 7" transform="translate(-45.365 -19.412)"/>
        <path id="prefix__Path_8" d="M-283.706 388.1c1.244-.8 2.415-2.1 3.755-2.3a46.168 46.168 0 019.764-.53c2.533.162 3.292 1.708 2.482 4.109-.847 2.518-1.9 4.963-2.945 7.415-.493 1.163-4.308 2.018-5.331.884s-1.576-.39-2.445-.265a27.869 27.869 0 01-6.723.6c-2.356-.25-3.122-2.231-1.539-4.006a11.6 11.6 0 014.934-3.137c2.054-.655 4.359-.449 6.524-.825.707-.125 1.3-.891 1.944-1.362a15.131 15.131 0 00-2.194-1.193c-.361-.133-.876.177-1.318.295q-3.181.806-6.362 1.627c-.185-.45-.369-.884-.546-1.312zm8.777 4.212c-2.32.265-4.786-.39-6.038 2.423 2.791 1.628 4.728.865 6.039-2.422z" class="prefix__cls-1" data-name="Path 8" transform="translate(-38.262 -21.581)"/>
        <path id="prefix__Path_9" d="M-220.815 397a62.959 62.959 0 01-7.747 1.038c-1.068.015-2.864-.891-3.048-1.686-.25-1.068.376-3.056 1.244-3.535a35.805 35.805 0 017.3-2.732c1.112-.324 2.4.015 3.549-.236.611-.133 1.1-.869 1.642-1.34a7.107 7.107 0 00-1.878-1.2c-.545-.147-1.23.214-1.848.361q-3.026.729-6.046 1.473a136.56 136.56 0 00-.493-1.09 14.083 14.083 0 013.048-2.283 17.329 17.329 0 0110.8-.685c2.158.545 2.776 2.077 2.106 4.006-.906 2.592-1.966 5.132-3.1 7.636-.75 1.682-4.514 1.527-5.529.273zm1.406-5.007a38.777 38.777 0 00-4.705.884c-.508.162-.781 1.075-1.163 1.649.589.317 1.186.928 1.76.906 1.929-.064 3.468-.845 4.109-3.444z" class="prefix__cls-1" data-name="Path 9" transform="translate(-52.988 -21.403)"/>
        <path id="prefix__Path_10" d="M-193.495 397.53c.965-2.371 1.929-4.448 2.644-6.613.28-.847.258-2.533-.11-2.7a3.943 3.943 0 00-3.049.066 7.148 7.148 0 00-2.378 2.548 21.428 21.428 0 00-1.458 3.269c-1.76 4.219-2.224 4.448-7.253 3.314 1.561-3.94 3-7.886 4.7-11.73.663-1.5 5.3-.839 6.053.574a35.505 35.505 0 016.1-1.583c3.5-.287 4.919 1.738 3.851 5.066-.42 1.311-.979 2.577-1.495 3.851-1.964 4.814-1.972 4.814-7.605 3.938z" class="prefix__cls-1" data-name="Path 10" transform="translate(-59.991 -21.437)"/>
        <path id="prefix__Path_11" d="M-229.3 329.836c-.965 2.747-2 5.479-2.872 8.255-.751 2.364-.987 4.838 1.09 6.664 2.194 1.922 4.831 1.517 7.3.567a11.283 11.283 0 003.439-2.216c2.143-1.973 2.032-3.2-.339-4.889a2.97 2.97 0 01-1.1-3.866 69.924 69.924 0 011.767-4.337 8.211 8.211 0 00.133-7.091c-.648-1.532.258-3.711.862-5.582 2.621 2.342 2.239 5.147 1.672 7.908a24.745 24.745 0 01-1.384 3.888c-.7 1.8-1.642 3.52.692 5.015a3.137 3.137 0 01.8 2.5c-.42 4.8-1.951 9.182-5.67 12.474-2.18 1.929-4.727 2.887-7.621 1.642-2.99-1.288-3.7-3.888-3.608-6.826.139-5.196 2.225-9.769 4.839-14.106z" class="prefix__cls-1" data-name="Path 11" transform="translate(-52.33 -3.691)"/>
        <path id="prefix__Path_12" d="M-292.905 336.373c-.648 1.973-1.458 3.91-1.915 5.92-1.2 5.272 1.76 8.2 7.106 7.157 5.913-1.149 9.057-5.324 9.308-11.885a21.182 21.182 0 011.672-6.966c-.317 6.789-.206 13.755-5.14 19.263a21.543 21.543 0 01-4.352 3.748 7.048 7.048 0 01-7.6.309 6.316 6.316 0 01-2.96-6.937c.641-3.689 2.01-7.253 3.071-10.869.272.098.537.179.81.26z" class="prefix__cls-1" data-name="Path 12" transform="translate(-35.785 -7.187)"/>
        <path id="prefix__Path_13" d="M-116.48 397.493c1.583-3.954 2.916-7.754 4.624-11.384 1.141-2.415 4.131-1.62 5.294-.92 1.679 1.009 2.526.221 3.748-.147.862-.265 1.76-.4 3.2-.722-.611 1.708-1.068 3-1.6 4.484-4.146-.7-6.428 1.23-7.805 4.934-1.688 4.521-1.828 4.47-7.461 3.755z" class="prefix__cls-1" data-name="Path 13" transform="translate(-83.355 -21.35)"/>
        <path id="prefix__Path_14" d="M-129.4 397.947c1.716-4.212 3.137-7.886 4.742-11.48a2.952 2.952 0 012.01-1.318 30.689 30.689 0 014.5-.059c-1.723 4.19-3.233 8.107-4.993 11.914-.272.582-1.657.781-2.563.906a28.446 28.446 0 01-3.696.037z" class="prefix__cls-1" data-name="Path 14" transform="translate(-79.949 -21.538)"/>
        <path id="prefix__Path_15" d="M-108.171 335.378c-1.281-1.289-3.063-2.415-2.909-3.048.442-1.738 1.7-3.269 2.629-4.882 1.031.648 2.062 1.3 3.321 2.091.626-1.222 1.1-3.041 2.261-4.131.95-.891 2.725-.913 4.131-1.318.913 3.2.28 3.962-2.99 4.079a3.085 3.085 0 00-2.077 1.318 52.522 52.522 0 00-2.857 5.309c-2.158 4.426-2.7 4.867-7.908 5.913 2.297-1.909 4.507-3.747 6.399-5.331z" class="prefix__cls-1" data-name="Path 15" transform="translate(-83.859 -5.471)"/>
        <path id="prefix__Path_16" d="M-246.758 318.26c.353 5.53-2.651 11.016.088 16.163.331.007.663.022.994.029.412-.744.825-1.48 1.289-2.312 1.333 2.3.714 5.854-1.193 6.922-1.789 1.009-3.292.221-3.549-1.591a29.864 29.864 0 01-.044-7.341c.434-3.93.088-8.07 2.415-11.87z" class="prefix__cls-1" data-name="Path 16" transform="translate(-48.318 -3.934)"/>
        <path id="prefix__Path_17" d="M-127.768 351.64c2.445 1.863 2.894 3.748 1.34 5.486-1.959 2.187-2.393-.906-4.028-1.1-.4.6-.935 1.414-1.392 2.106-3.63-2.047-3.66-2.835-.191-6.907.353.6.677 1.163 1.016 1.708s.677 1.068 1.141 1.789l1.038-1.532c.362-.519.715-1.035 1.076-1.55z" class="prefix__cls-1" data-name="Path 17" transform="translate(-78.576 -12.623)"/>
        <path id="prefix__Path_18" d="M-259.058 326.246c-3.144-4.44-2.909-9.079.913-15.6.133 3.527-3.549 7.746 2.71 10.044-1.281 1.907-2.482 3.7-3.682 5.5z" class="prefix__cls-1" data-name="Path 18" transform="translate(-45.193 -1.927)"/>
        <path id="prefix__Path_19" d="M-259.75 331.76c-.353 1.826-.7 3.652-1.053 5.471.265.074.538.155.8.228.471-.331.95-.67 1.48-1.046.191.331.427.552.434.781a7.594 7.594 0 01-.1 2.688c-.6 1.627-1.377 3.564-3.593 2.982-2.29-.6-2.04-2.813-1.458-4.345a57.163 57.163 0 013.535-6.7z" class="prefix__cls-1" data-name="Path 19" transform="translate(-44.56 -7.493)"/>
        <path id="prefix__Path_20" d="M-123.12 338.011q1.657-8.207 3.321-16.421c.324.066.655.14.979.206-.611 5.582-.574 11.318-4.3 16.215z" class="prefix__cls-1" data-name="Path 20" transform="translate(-81.605 -4.811)"/>
        <path id="prefix__Path_21" d="M-113.8 377.443c-.876 3.711-.876 3.711-6.568 3.24.513-3.719.992-3.969 6.568-3.24z" class="prefix__cls-1" data-name="Path 21" transform="translate(-82.33 -19.45)"/>
        <path id="prefix__Path_22" d="M-140.168 354.41c2.732 2.268 3.063 3.711 1.355 5.722a2.056 2.056 0 01-1.937.39c-2.871-2.217-.124-3.932.582-6.112z" class="prefix__cls-1" data-name="Path 22" transform="translate(-76.619 -13.464)"/>
        <path id="prefix__Path_23" d="M-146.549 361.714c-3.063-2.135-3.078-2.776-.3-6.414 2.9 1.8 2.995 3.225.3 6.414z" class="prefix__cls-1" data-name="Path 23" transform="translate(-74.81 -13.699)"/>
        <path id="prefix__Path_24" d="M-129.415 360.41c2.828 2.5 2.85 3.5.309 6.451-3.52-1.274-2.82-3.174-.309-6.451z" class="prefix__cls-1" data-name="Path 24" transform="translate(-79.389 -15.046)"/>
        <path id="prefix__Path_25" d="M-282.677 335.95c2.275 2.047 2.658 4.057 1 5.685a2.121 2.121 0 01-2 .133c-1.805-1.15-1.563-2.401 1-5.818z" class="prefix__cls-1" data-name="Path 25" transform="translate(-38.967 -8.597)"/>
        <path id="prefix__Path_26" d="M-217.5 307.21c-2.047 2.113-.449 2.18 1.075 2.327-1.406 1.274-2.607 2.356-4.19 3.792.8-2.3 1.436-4.16 2.069-6.016.351-.029.705-.066 1.046-.103z" class="prefix__cls-1" data-name="Path 26" transform="translate(-55.902 -1.02)"/>
    </g>
</svg>
